<?xml version="1.0" encoding="utf-8"?>
<!-- Generator: Adobe Illustrator 24.1.0, SVG Export Plug-In . SVG Version: 6.00 Build 0)  -->
<svg version="1.1" id="Layer_1" xmlns="http://www.w3.org/2000/svg" xmlns:xlink="http://www.w3.org/1999/xlink" x="0px" y="0px"
	 viewBox="0 0 560 560" style="enable-background:new 0 0 560 560;" xml:space="preserve">
<style type="text/css">
	.st0{fill:#45A9F4;}
	.st1{fill:#2390E2;}
	.st2{fill:#97C9F7;}
	.st3{fill:#1B6CA8;}
	.st4{fill:#B2B2B2;}
	.st5{fill:#FFC843;}
	.st6{fill:#0F7ABC;}
	.st7{fill:#FFFFFF;}
	.st8{fill:#D1D3D3;}
	.st9{fill:#264C59;}
</style>
<g>
	<path class="st0" d="M158.2,515.2c0,0,17,17.2,57.5,3.6c0,0,4.5-22.5-14.3-38.5l-19.7-1.7C181.8,478.6,158.6,487.5,158.2,515.2z"/>
	<path class="st1" d="M198.4,481.6l-16.6-3c0,0-23.1,8.9-23.6,36.5c0,0,2.9,3.5,9.4,5.5C168.3,495.4,191.8,485,198.4,481.6
		L198.4,481.6z"/>
	<path class="st2" d="M188.5,425.4l-13.2,57c0,0,10.7,13.5,32.7,4.8l-8.7-62.6L188.5,425.4L188.5,425.4z"/>
	<path class="st3" d="M195.5,424.7l-7,0.6l-13.2,57c0,0,1.2,1.6,3.7,3.3L195.5,424.7L195.5,424.7z"/>
	<path class="st2" d="M177,356l7.2,57.7c0,0,19.8-5.3,22.4,3.8l21.1-58.1C227.7,359.5,214.5,350.8,177,356z"/>
	<path class="st2" d="M0,0"/>
	<circle class="st4" cx="194.6" cy="419.1" r="13.7"/>
	<path class="st5" d="M0,0"/>
	<path class="st0" d="M310.4,515.2c0,0-17,17.2-57.5,3.6c0,0-4.5-22.5,14.3-38.5l19.7-1.7C286.8,478.6,309.9,487.5,310.4,515.2z"/>
	<path class="st1" d="M270.2,481.6l16.6-3c0,0,23.1,8.9,23.6,36.5c0,0-2.8,3.5-9.4,5.5C300.3,495.4,276.8,485,270.2,481.6
		L270.2,481.6z"/>
	<path class="st2" d="M280.1,425.4l13.2,57c0,0-10.7,13.5-32.7,4.8l8.7-62.6L280.1,425.4L280.1,425.4z"/>
	<path class="st3" d="M273.1,424.7l7,0.6l13.2,57c0,0-1.2,1.6-3.7,3.3L273.1,424.7z"/>
	<path class="st2" d="M291.6,356l-7.2,57.7c0,0-19.8-5.3-22.4,3.8l-21.1-58.1C240.9,359.5,254.1,350.8,291.6,356z"/>
	<path class="st3" d="M285.6,356.7c1.9,0.2,4,0.5,6.1,0.8l-7.2,57.7c0,0-5-1.2-8.4-1.6L285.6,356.7L285.6,356.7z M262,418.9
		c0,0,0,0.1,0,0.1L262,418.9L262,418.9L262,418.9z"/>
	<circle class="st4" cx="274" cy="419.1" r="13.7"/>
	<path class="st5" d="M0,0"/>
	<path class="st0" d="M165.7,356.1c0,0,23.7,20.2,71.4,18.2c47.6-1.9,60.7-21.8,60.7-21.8S191.5,332.6,165.7,356.1L165.7,356.1z"/>
	<path class="st4" d="M464.8,155.7c0,0,0.2,27.4-8.2,39.9l9.9,2.4c0,0,15.3-20.4,14.8-39.7C481.3,158.4,477.4,154,464.8,155.7z
		 M490.3,166.5c0,0,11.1,0.7,13.9,5.3c0,0-3.6,29-27.2,35.6l-6.5-9.4C470.6,198,486,185.1,490.3,166.5z M477.8,209.3
		c0,0,22.1,5.1,35.8-11.3c0,0,4.6,9.9,0,19.2c0,0-18.3,12-39.9,1.2L477.8,209.3L477.8,209.3z M433.8,181c0,0,6.5,13.2,15.6,19.7
		l-1.2,9.8c0,0-13.7,2.4-26.2-19.2C422,191.3,424.2,184.3,433.8,181z M363.3,285.2c-20.5,0-37-6.9-48.6-14
		c-18.4-11.3-28.3-25.4-28.7-26l11.8-8.2c0.1,0.1,8.9,12.6,24.9,22.2c21,12.7,44,15,68.4,6.8c17-5.7,40.1-16.2,53.6-33.7
		c7.9-10.2,8.8-18.2,8.8-18.3l0,0.1l14.4,1.1c-0.1,1.7-4,41.6-72.2,64.5C384,283.6,373.2,285.2,363.3,285.2z M102,387.8H87.6
		c0-32.3,5.1-60.4,15.3-83.6c8.3-18.9,19.8-34.6,34.3-46.7c24.9-20.7,49.9-23.5,50.9-23.6l0.7,7.2l0.8,7.2
		c-0.2,0-22.2,2.6-43.8,20.9c-12.6,10.7-22.7,24.6-30,41.4C106.7,331.8,102,357.8,102,387.8L102,387.8z M0,0"/>
	<circle class="st1" cx="285.7" cy="241.1" r="16.4"/>
	<circle class="st1" cx="186.9" cy="241.1" r="16.4"/>
	<path class="st0" d="M69,112.4h29.7v9.6H69V112.4z"/>
	<circle class="st1" cx="58.1" cy="117.2" r="13.8"/>
	<path class="st6" d="M97.1,84.8c0,0-10.3,35.3-4.2,67.8c0,0,22.1,3.4,34.3,3l2.6-69.3C129.8,86.4,116.9,81.2,97.1,84.8z"/>
	<path class="st1" d="M110.5,154.7c5.8,0.6,12,1,16.7,0.9l2.6-69.3c0,0-7-2.8-20.9-2.8C105.4,95.2,105.8,118.8,110.5,154.7z"/>
	<path class="st0" d="M398.7,113.6l0.1,9.6l-29.7,0.3l-0.1-9.6L398.7,113.6z"/>
	<circle class="st1" cx="409.6" cy="118.3" r="13.8"/>
	<path class="st6" d="M373.5,84.1c0,0,7.3,36-1.5,67.9c0,0-22.3,1.5-34.4,0.2l3.2-69.2C340.8,82.9,354,78.9,373.5,84.1z"/>
	<path class="st1" d="M354.2,152.7c-5.8,0.1-12,0-16.7-0.5l3.2-69.2c0,0,6.2-1.9,16.3-1.4C359.5,93.3,362,117.2,354.2,152.7
		L354.2,152.7z"/>
	<path class="st6" d="M222.2,219c0,0-56.5-4.9-56.5,137.1c0,0,87.3,15.9,132-3.6c0,0,12.4-133.5-47.2-133.5L222.2,219L222.2,219z"/>
	<path class="st1" d="M216.9,201v20.9c0,0,21.1,9.4,37.9-2.9v-22.4L216.9,201L216.9,201z"/>
	<path class="st4" d="M83.8,394.2c0,0-15.7,4.5-22.1,34.3l11.1,5.8c0,0,3-23.1,14.9-32.4L83.8,394.2L83.8,394.2z"/>
	<path class="st4" d="M87.6,404.3c0,0-11.6,8.9-13,43.8l13,5.8c0,0-3.8-31.3,6.6-47.4L87.6,404.3z"/>
	<path class="st4" d="M105.5,402.1c0,0-2.2,29.1,7.9,51.7c0,0-7.2,7-15.2,6.7c0,0-10.8-36.3-2.9-56.3L105.5,402.1L105.5,402.1z
		 M109.4,391c0,0,7.5-1.2,20.9,16.4l-7.2,9.6c0,0-3.4-12.7-16.8-18L109.4,391z M0,0"/>
	<path class="st2" d="M126,50.1c0,0-18.3,79.8-2.4,138c0,0,80.8,37.5,212.6,2.4c0,0,23.1-88,8.2-135.2
		C344.4,55.4,215.5,15.5,126,50.1L126,50.1z"/>
	<g>
		<path class="st7" d="M291.9,150.2c-21.5,0-39-17.5-39-39s17.5-39,39-39c21.5,0,39,17.5,39,39S313.4,150.2,291.9,150.2z"/>
		<path class="st8" d="M291.9,74.7c20.2,0,36.6,16.4,36.6,36.6s-16.4,36.6-36.6,36.6c-20.2,0-36.6-16.4-36.6-36.6
			S271.8,74.7,291.9,74.7 M291.9,69.9c-22.8,0-41.4,18.5-41.4,41.4c0,22.8,18.5,41.4,41.4,41.4c22.8,0,41.4-18.5,41.4-41.4
			C333.3,88.4,314.8,69.9,291.9,69.9z M0,0"/>
	</g>
	<g>
		<circle class="st9" cx="291.2" cy="124.7" r="10.3"/>
	</g>
	<g>
		<path class="st7" d="M170.5,150.2c-21.5,0-39-17.5-39-39s17.5-39,39-39c21.5,0,39,17.5,39,39S192,150.2,170.5,150.2z"/>
		<path class="st8" d="M170.5,74.7c20.2,0,36.6,16.4,36.6,36.6s-16.4,36.6-36.6,36.6s-36.6-16.4-36.6-36.6S150.3,74.7,170.5,74.7
			 M170.5,69.9c-22.8,0-41.4,18.5-41.4,41.4c0,22.8,18.5,41.4,41.4,41.4c22.8,0,41.4-18.5,41.4-41.4
			C211.8,88.4,193.3,69.9,170.5,69.9z M0,0"/>
	</g>
	<g>
		<circle class="st9" cx="169.8" cy="124.7" r="10.3"/>
	</g>
	<g>
		<path class="st9" d="M0,0"/>
	</g>
	<g>
		<path class="st4" d="M227.7,260.1h18.8v57h-18.8V260.1z"/>
		<path class="st4" d="M246.5,317.1l-4.7,0.1l-4.7,0.1l-9.4,0.2l-0.5,0l0-0.5l-0.2-14.2c-0.1-4.7-0.1-9.5-0.1-14.2l-0.1-14.2l0-14.2
			l0-1l1,0l18.8,0l0.9,0l0,0.9l-0.1,14.2l-0.2,14.2l-0.1,7.1c0,2.4-0.1,4.8-0.1,7.1l-0.2,7.1C246.6,312.4,246.5,314.8,246.5,317.1
			L246.5,317.1z M246.5,317.1c-0.1-2.4-0.2-4.8-0.2-7.1l-0.2-7.1c-0.1-2.4-0.1-4.8-0.1-7.1l-0.1-7.1l-0.2-14.2l-0.1-14.2l0.9,0.9
			l-18.8,0l1-1l0,14.2l-0.1,14.2c0,4.7-0.1,9.5-0.1,14.2l-0.2,14.2l-0.5-0.5l9.4,0.2l4.7,0.1L246.5,317.1L246.5,317.1z"/>
	</g>
	<g>
		<path class="st4" d="M267.6,268.4h13.3v40.4h-13.3V268.4z"/>
		<path class="st4" d="M280.9,308.8c-2.2,0.1-4.4,0.2-6.6,0.3l-6.6,0.2l-0.5,0l0-0.5l-0.1-5l-0.1-5c-0.1-3.4-0.1-6.7-0.1-10.1
			c0-3.4-0.1-6.7-0.1-10.1l0-10.1l0-1l1,0l13.3,0l0.9,0l0,0.9l-0.1,10.1l-0.2,10.1c-0.1,3.4-0.1,6.7-0.3,10.1l-0.2,5L280.9,308.8z
			 M280.9,308.8l-0.2-5l-0.2-5c-0.1-3.4-0.2-6.7-0.3-10.1l-0.2-10.1l-0.1-10.1l0.9,0.9l-13.3,0l1-1l0,10.1c0,3.4-0.1,6.7-0.1,10.1
			c0,3.4-0.1,6.7-0.1,10.1l-0.1,5l-0.1,5l-0.5-0.5l6.6,0.2C276.5,308.6,278.7,308.7,280.9,308.8z"/>
	</g>
	<g>
		<path class="st4" d="M193.3,268.4h13.3v40.4h-13.3V268.4z"/>
		<path class="st4" d="M206.6,308.8c-2.2,0.1-4.4,0.2-6.6,0.3l-6.6,0.2l-0.5,0l0-0.5l-0.1-5l-0.1-5c-0.1-3.4-0.1-6.7-0.1-10.1
			c0-3.4-0.1-6.7-0.1-10.1l0-10.1l0-1l1,0l13.3,0l0.9,0l0,0.9l-0.1,10.1l-0.2,10.1c-0.1,3.4-0.1,6.7-0.3,10.1l-0.2,5L206.6,308.8z
			 M206.6,308.8l-0.2-5l-0.2-5c-0.1-3.4-0.2-6.7-0.3-10.1l-0.2-10.1l-0.1-10.1l0.9,0.9l-13.3,0l1-1l0,10.1c0,3.4-0.1,6.7-0.1,10.1
			c0,3.4-0.1,6.7-0.1,10.1l-0.1,5l-0.1,5l-0.5-0.5l6.6,0.2C202.1,308.6,204.4,308.7,206.6,308.8L206.6,308.8z"/>
	</g>
	<g>
		<path class="st9" d="M0,0"/>
		<path class="st9" d="M0,0"/>
		<g>
			<path class="st9" d="M0,0"/>
			<g>
				<path class="st8" d="M144.1,156.1h4.7v22.3h-4.7V156.1z"/>
			</g>
			<g>
				<path class="st8" d="M170.6,164.3h4.7v22.3h-4.7V164.3z"/>
			</g>
			<g>
				<path class="st8" d="M197.2,168.6h4.7v22.3h-4.7V168.6z"/>
			</g>
			<g>
				<path class="st8" d="M223.8,170.4h4.7v22.3h-4.7V170.4z"/>
			</g>
			<g>
				<path class="st8" d="M250.3,169.9h4.7v22.3h-4.7V169.9z"/>
			</g>
			<g>
				<path class="st8" d="M277.5,165h4.7v22.3h-4.7V165z"/>
			</g>
			<g>
				<path class="st8" d="M303.4,158.8h4.7v22.3h-4.7V158.8z"/>
			</g>
			<g>
				<path class="st9" d="M227.3,163.7h2.4v32.2h-2.4V163.7z M253.8,163.7h2.4v32.2h-2.4L253.8,163.7z M280.4,160h2.4v32.2h-2.4V160z
					 M307,154.3h2.4v32.2H307V154.3z M200.7,163.7h2.4v32.2h-2.4V163.7z M174.2,160h2.4v32.2h-2.4V160z M147.6,152.5h2.4v32.2h-2.4
					V152.5z"/>
			</g>
		</g>
	</g>
</g>
</svg>
