<?xml version="1.0" encoding="utf-8"?>
<!-- Generator: Adobe Illustrator 24.1.0, SVG Export Plug-In . SVG Version: 6.00 Build 0)  -->
<svg version="1.1" id="Layer_1" xmlns="http://www.w3.org/2000/svg" xmlns:xlink="http://www.w3.org/1999/xlink" x="0px" y="0px"
	 viewBox="0 0 470.2 512" style="enable-background:new 0 0 470.2 512;" xml:space="preserve">
<style type="text/css">
	.st0{fill:#333333;}
</style>
<g id="XMLID_2_">
	<path id="XMLID_6_" class="st0" d="M470.2,425.8c0,26.5-8.5,47.8-24.7,63.1c-16.2,15.4-37.5,23-64,23H89.6
		c-27.3,0-48.6-7.7-64.9-23C8.5,473.5,0,452.2,0,425.8c0-11.9,0-23,0.9-34.1s2.6-23,4.3-36.7s5.1-24.7,8.5-35.8s8.5-22.2,14.5-32.4
		c6-10.2,12.8-19.6,20.5-27.3c7.7-7.7,17.1-13.7,28.2-17.9c11.1-4.3,23.9-6.8,37.5-6.8c1.7,0,6.8,2.6,13.7,6.8
		c6.8,4.3,15.4,10.2,24.7,16.2c9.4,6,21.3,11.1,35.8,16.2s29.9,6.8,44.4,6.8s29.9-2.6,44.4-6.8c14.5-5.1,26.5-10.2,35.8-16.2
		c9.4-6,17.9-11.1,24.7-16.2c6.8-5.1,11.9-6.8,13.7-6.8c13.7,0,25.6,2.6,37.5,6.8c11.9,4.3,20.5,10.2,28.2,17.9s14.5,16.2,20.5,27.3
		c6,11.1,11.1,21.3,14.5,32.4s6.8,23,8.5,35.8s4.3,24.7,4.3,36.7C465.1,403.6,470.2,413.9,470.2,425.8z M363.5,128
		c0,35-12.8,65.7-37.5,90.5c-24.7,24.7-55.5,37.5-90.5,37.5s-65.7-12.8-90.5-37.5c-24.7-24.7-37.5-55.5-37.5-90.5
		s12.8-65.7,37.5-90.5C169.8,12.8,200.5,0,235.5,0s65.7,12.8,90.5,37.5C350.7,62.3,363.5,93,363.5,128z"/>
</g>
</svg>
